<?xml version="1.0" encoding="utf-8"?>
<!-- Generator: Adobe Illustrator 24.3.0, SVG Export Plug-In . SVG Version: 6.00 Build 0)  -->
<svg version="1.1" id="Livello_1" xmlns="http://www.w3.org/2000/svg" xmlns:xlink="http://www.w3.org/1999/xlink" x="0px" y="0px"
	 viewBox="0 0 250 100" style="enable-background:new 0 0 250 100;" xml:space="preserve">
<style type="text/css">
	.st0{fill:#FFFFFF;}
</style>
<g>
	<path class="st0" d="M79.45,57.76c-0.67,1.92-1.61,3.88-2.81,5.88c-1.21,2-2.77,4.21-4.69,6.63c-0.58,0.67-1.21,1.42-1.88,2.25
		c-0.67,0.83-1.46,1.71-2.38,2.63c-0.83,0.92-1.69,1.92-2.56,3c-0.88,1.08-1.77,2.25-2.69,3.5c-0.83,1-1.9,2.31-3.19,3.94
		c-1.29,1.63-2.73,3.44-4.31,5.44c-0.17,0.42-0.25,0.67-0.25,0.75c0,0.17-0.04,0.33-0.12,0.5c-0.17,0.33-0.54,1.04-1.13,2.13
		c-5.67-2.25-10.84-3.96-15.51-5.13c-4.67-1.17-8.88-1.75-12.63-1.75c-0.33,0-1.88,0.25-4.63,0.75c-6.25,1.08-12.01,3.29-17.26,6.63
		c1.83-4.84,5.25-8.79,10.25-11.88c2.08-1.42,4.27-2.58,6.57-3.5c2.29-0.92,4.65-1.71,7.07-2.38c2.58-0.58,5.21-0.96,7.88-1.13
		c1.5-0.08,3.13-0.21,4.88-0.38c0.42,0,0.75,0.02,1,0.06c0.25,0.04,0.58,0.11,1,0.19c0.67,0.08,1.4,0.17,2.19,0.25
		c0.79,0.08,1.73,0.21,2.81,0.38c1.5,0.08,4.96,1.04,10.38,2.88c2.08-2.58,3.77-4.65,5.06-6.19c1.29-1.54,2.19-2.73,2.69-3.56
		c2.92-4.33,4.38-8.08,4.38-11.25c0-1.33-0.71-3.04-2.13-5.13c-2.33-3.33-6.92-5-13.76-5h-8.13c-0.42,0.08-0.75,0.12-1,0.12
		s-0.46,0-0.63,0l-1,2.25h1.25c0.42,0,0.67,0,0.75,0c2.5,0,3.79,0,3.88,0h0.75c6.5,0,11,0.86,13.51,2.58
		c2.08,1.23,3.29,3.43,3.63,6.62c-0.17,0.16-0.29,0.7-0.38,1.59c0,0.16-0.02,0.29-0.06,0.37c-0.04,0.08-0.06,0.21-0.06,0.37
		c-0.08,0.41-0.46,1.49-1.13,3.23c-1.42,3.92-4.17,6.55-8.25,7.88l1.25-1.75l-0.12,0.12c0.08-0.17,0.14-0.35,0.19-0.56
		c0.04-0.21,0.1-0.39,0.19-0.56c0.25-0.58,0.38-1.13,0.38-1.63l0.12-0.25c0-3.67-4.75-5.5-14.26-5.5h-6.5c-0.33,0-0.63,0-0.88,0
		c-0.17,0-0.33,0-0.5,0c-0.25,0.33-0.83,1.29-1.75,2.88c-5,7.67-10.34,11.5-16.01,11.5c-0.33,0-0.83-0.08-1.5-0.25
		c-4.25-1.33-6.38-3.75-6.38-7.25l0.12-0.13c0-2.42,1.33-4.38,4-5.88c0.42-0.17,0.75-0.31,1-0.44c0.25-0.12,0.58-0.19,1-0.19
		l0.13-0.12h0.38c4.58,0,7.21,2.12,7.88,6.38c0.42-0.42,0.92-0.89,1.5-1.44c0.58-0.54,1.13-1.15,1.63-1.81
		c0.17-0.17,0.33-0.42,0.5-0.75c0.17-0.33,0.42-0.71,0.75-1.13c0-0.33,0.25-0.75,0.75-1.25v-0.13H30.3h-0.25h-1.5
		c-3.84,0-7.5-0.49-11-1.48c-4.59-1.4-7.63-3.47-9.13-6.19c-0.83-1.57-1.25-3.55-1.25-5.95c0-3.83,1.42-7.17,4.25-10
		c1.25,4.92,4.67,8.17,10.25,9.75c3.5,0.92,8.42,1.38,14.76,1.38l0.12-0.13h0.25l0.88-2.12h-0.5c-12.67,0-20.22-2.58-22.63-7.75
		c-0.92-2-1.38-4.25-1.38-6.75c0-9,5.04-15.67,15.13-20.01c1.58-0.67,3.08-1.17,4.5-1.5c1.42-0.33,2.79-0.54,4.13-0.63
		c0.25,0,0.5-0.04,0.75-0.12c1.08,0,1.67-0.04,1.75-0.12h2.5c0.08,0.08,0.75,0.12,2,0.12h0.25c0.42,0,1,0.08,1.75,0.25
		c0.75,0.17,1.75,0.38,3,0.63c4.17,1.17,8.13,2.92,11.88,5.25l3.5-2.88l3.13,2.88c-0.5,0.75-1.04,1.29-1.63,1.63h0.12l-2.25,2.25
		c-0.92,0.67-1.92,1.54-3,2.63c-2.92,2.92-5.92,6.5-9,10.75c1.83,0.17,4.58,0.29,8.25,0.38c2.08,0,4.42,0.42,7,1.25
		c9.09,2.42,13.63,7.21,13.63,14.38C80.57,53.43,80.2,55.68,79.45,57.76z M50.18,28.5c-1.5-3-3.81-5.44-6.94-7.32
		c-3.13-1.88-6.32-2.81-9.57-2.81h-0.5l-1,0.25c-0.25,0.08-0.54,0.12-0.88,0.12c-0.25,0-0.58,0.04-1,0.13
		c-5.42,1.25-8.3,3.92-8.63,8c0.08,3.92,3,6.46,8.75,7.63c2.33,0.5,4.29,0.75,5.88,0.75h5.5c0.25,0,0.5,0,0.75,0
		c0.33,0,0.67-0.04,1-0.12h1.63c0.25-0.42,0.54-0.88,0.88-1.38c0.33-0.5,0.75-1.04,1.25-1.63c0.17-0.17,0.4-0.46,0.69-0.88
		c0.29-0.42,0.52-0.75,0.69-1c0.17-0.17,0.31-0.33,0.44-0.5c0.12-0.17,0.27-0.38,0.44-0.62L50.18,28.5z"/>
</g>
<g>
	<path class="st0" d="M109.31,18.49c-0.02,0.09-0.06,0.2-0.1,0.33c-0.04,0.13-0.07,0.29-0.07,0.47c0,0.13-0.02,0.31-0.07,0.53
		c-0.49,1.69-1.27,2.85-2.34,3.47l0.07,17.37v-0.07c0.36,1.02,0.85,1.94,1.47,2.74v-0.07l0.13,0.13v0.07l0.13,0.13l-0.33,0.47
		c-0.85-0.44-2-0.67-3.47-0.67c-2.32,0-3.54,0.38-3.67,1.14l0.47,0.47h-0.4c0.09,0.13,0.26,0.31,0.5,0.53
		c0.24,0.22,0.54,0.49,0.9,0.8c2.18,1.78,3.27,3.58,3.27,5.41c0,1.69-0.8,3.03-2.4,4.01c-0.62,0.4-1.07,0.6-1.34,0.6l-0.13,0.07
		h-0.4l-0.07,0.07h-0.27c-1.34,0-2.27-0.65-2.81-1.94c1.42-0.54,2.14-1.29,2.14-2.27c0-0.8-0.25-1.49-0.73-2.07
		c-0.13-0.04-0.22-0.27-0.27-0.67l0.07,0.07c-0.85-1.25-1.27-2.61-1.27-4.08c0-1.02,0.27-1.69,0.8-2v-0.07
		c0.49-0.49,0.73-1.02,0.73-1.6v-17.3c-0.45,0-1.07-0.27-1.87-0.8c-0.89-0.58-1.43-0.96-1.6-1.14l-0.07-0.07l-2.94,2.2V38.6
		c0.18,0.04,0.38,0.11,0.6,0.2c0.22,0.09,0.49,0.18,0.8,0.27c0.71,0.36,1.32,0.73,1.84,1.14c0.51,0.4,0.95,0.82,1.3,1.27l-6.15,5.61
		c-2.49-2.4-4.77-3.61-6.81-3.61h-0.33c-0.09,0-0.22,0.02-0.4,0.07c-0.18,0.04-0.45,0.16-0.8,0.33c-0.22,0.09-0.47,0.16-0.73,0.2
		c-0.27,0.04-0.45,0.07-0.53,0.07c0.62-2.45,2.03-4.14,4.21-5.08V11.08c0-0.85-0.42-2.18-1.27-4.01c1.29,0,2.58-0.27,3.88-0.8
		c1.29-0.53,2.65-1.31,4.07-2.34c0.09-0.04,0.58-0.44,1.47-1.2l-0.07,0.07l0.53,0.07c-0.09,0.27-0.19,0.56-0.3,0.87
		c-0.11,0.31-0.19,0.53-0.23,0.67l-0.2,0.4c-0.18,0.36-0.36,1.02-0.53,2c-0.04,0.04-0.07,0.09-0.07,0.13V7
		c-0.09,0.49-0.16,0.89-0.2,1.2c-0.04,0.31-0.07,0.53-0.07,0.67v12.56l8.42-6.41c1.2,2.45,2.47,3.67,3.81,3.67
		c0.04,0.04,0.18,0.07,0.4,0.07c0.58,0,1.69-0.51,3.34-1.54v0.94C109.34,18.29,109.33,18.4,109.31,18.49z"/>
</g>
<g>
	<path class="st0" d="M126.5,36.13c-0.4,0.2-1.19,0.64-2.38,1.33c-1.19,0.68-2.8,1.63-4.83,2.83c-0.3,0.17-0.63,0.38-1,0.65v3.76
		c1.03,0.17,1.99,0.38,2.88,0.65c0.88,0.27,1.71,0.58,2.48,0.95l1.2-1.25l1.25,1.15l-4.56,5.01l-0.5-0.25
		c-0.7-0.37-1.39-0.71-2.05-1.03c-0.67-0.32-1.44-0.56-2.3-0.73c-1.47-0.3-2.74-0.45-3.81-0.45c-0.4,0-0.8,0.02-1.2,0.08
		c-0.4,0.05-0.8,0.11-1.2,0.18c0.07-0.17,0.13-0.31,0.2-0.43c0.07-0.12,0.13-0.21,0.2-0.28v0.05c0.23-0.37,0.43-0.67,0.58-0.9
		c0.15-0.23,0.24-0.37,0.28-0.4c0.23-0.3,0.68-0.7,1.35-1.2V33.73c0-0.5-0.27-1.33-0.8-2.5v-0.7l0.45,0.45h0.3l0.05,0.05h0.15
		l0.15,0.05h0.2c2.64,0,5.61-1.1,8.91-3.3c0.17,0.6,0.38,1.25,0.65,1.95c0.27,0.7,0.63,1.49,1.1,2.35c0.43,0.77,0.84,1.48,1.23,2.13
		c0.38,0.65,0.74,1.21,1.08,1.68L126.5,36.13z M119.24,33.58c-0.2-0.47-0.38-0.93-0.55-1.4l-0.4,0.1v6.41l2.7-1.75
		c-0.13-0.2-0.29-0.46-0.48-0.78c-0.18-0.32-0.39-0.73-0.63-1.23C119.66,34.5,119.44,34.05,119.24,33.58z"/>
</g>
<g>
	<path class="st0" d="M144.48,22.14c-0.9,0.98-2.05,1.46-3.45,1.46c-1.13,0-2.22-0.51-3.28-1.52l-1.58,1.64v10.53
		c0.08,0.04,0.2,0.08,0.35,0.12c0.15,0.04,0.33,0.08,0.53,0.12h-0.06c0.78,0.08,1.58,0.53,2.4,1.35l1.05-1.05l1.29,1.4l-6.03,5.85
		c-2.18-2.07-4.23-3.1-6.14-3.1c-0.39,0-0.73,0.05-1.02,0.15c-0.29,0.1-0.6,0.19-0.91,0.26l-0.76,0.29c0-1.21,0.6-2.42,1.81-3.63
		c0.23-0.23,0.44-0.41,0.61-0.53c0.18-0.12,0.32-0.21,0.44-0.29l-0.12,0.06l0.18-0.18h0.18l0.06-0.06V22.9
		c-0.27-0.39-0.58-0.71-0.91-0.96c-0.33-0.25-0.71-0.48-1.14-0.67c-0.12-0.04-0.29-0.1-0.53-0.18c-0.08-0.04-0.24-0.09-0.5-0.15
		s-0.44-0.11-0.55-0.15c2.42-1.4,4.31-3.43,5.67-6.08c2.07,1.05,3.43,2.93,4.1,5.62l0.53-0.7c0.2-0.19,0.39-0.4,0.59-0.61
		c0.2-0.21,0.41-0.46,0.64-0.73c0.74-0.74,1.56-1.81,2.46-3.22v-0.18l0.47-0.06c0.7,2.22,1.73,3.33,3.1,3.33
		c0.47,0,1.09-0.35,1.87-1.05v1.35C145.82,19.94,145.38,21.17,144.48,22.14z"/>
</g>
<g>
	<path class="st0" d="M154.28,45.61c-2.43-2.1-5.31-3.55-8.63-4.35c1.08-1.73,2.2-2.9,3.37-3.51V9.13l-0.42-2.17
		c0-0.05-0.01-0.08-0.04-0.11c-0.02-0.02-0.04-0.06-0.04-0.1v0.07c-0.05-0.09-0.07-0.26-0.07-0.49l-0.14-0.21l-0.07-0.07
		c0-0.14-0.02-0.26-0.07-0.35l-0.07-0.14V4.64c0.28,0.14,0.49,0.22,0.63,0.25c0.14,0.02,0.28,0.04,0.42,0.04
		c1.64,0,4.21-1.4,7.72-4.21l0.35,0.28c-0.19,0.37-0.35,0.82-0.49,1.33c-0.14,0.52-0.3,1.1-0.49,1.75
		c-0.33,1.31-0.49,2.31-0.49,3.02v29.96c0.56,0.28,1.31,0.77,2.24,1.47c-0.09-0.09-0.05-0.09,0.14,0c0.23,0.23,0.37,0.4,0.42,0.49
		l0.21,0.21l1.05-0.98l1.4,1.82L154.28,45.61z"/>
</g>
<g>
	<path class="st0" d="M218.1,24.9c-0.07,1.21-0.56,2.21-1.47,3.02c-0.91,0.81-1.97,1.21-3.18,1.21c-1.59,0-2.71-0.48-3.36-1.45
		v11.99c0.31,0.17,0.71,0.26,1.19,0.26c0.03,0.03,0.2,0.1,0.49,0.18c0.29,0.09,0.73,0.23,1.32,0.44c0.34,0.14,0.65,0.28,0.91,0.44
		c0.26,0.16,0.47,0.34,0.65,0.54l1.34-1.6l1.24,0.98l-4.7,5.79c-2.38-2-5-3-7.86-3c-0.96,0-1.72,0.31-2.27,0.93
		c0.34-1.65,1.12-2.9,2.33-3.72V29.14c0-0.1-0.01-0.22-0.03-0.36c-0.02-0.14-0.03-0.31-0.03-0.52c-0.1-0.21-0.16-0.5-0.16-0.88
		c-0.17-0.41-0.26-0.71-0.26-0.88c-0.04-0.03-0.09-0.21-0.16-0.52v-0.67l0.46,0.47c0.07,0.07,0.4,0.1,0.98,0.1
		c1.27,0,2.52-0.29,3.72-0.88c1.21-0.59,2.19-1.4,2.95-2.43c1.48,1.93,2.84,2.9,4.08,2.9c0.24,0,0.74-0.24,1.5-0.72L218.1,24.9z"/>
</g>
<g>
	<path class="st0" d="M236.13,46.7c-1.85-0.59-3.23-1.81-4.14-3.67c-0.16-0.31-0.38-0.9-0.65-1.74c-0.28-0.85-0.63-2.02-1.06-3.52
		c-0.16-0.39-0.33-0.88-0.53-1.45c-0.2-0.57-0.49-1.27-0.89-2.1l-1.3,0.89v4.32c0.08,0.08,0.14,0.12,0.18,0.12
		c0.08,0,0.16,0.02,0.24,0.06l0.06,0.06c0.08,0.04,0.16,0.08,0.24,0.12c0.08,0.04,0.16,0.08,0.24,0.12c0.2,0.12,0.4,0.25,0.62,0.38
		c0.22,0.14,0.42,0.29,0.62,0.44c0.2,0.16,0.37,0.35,0.53,0.56c0.16,0.22,0.33,0.46,0.53,0.74l-4.85,4.55
		c-1.7-2.17-3.92-3.27-6.68-3.31l-0.06,0.06h-0.53c0-1.42,0.81-2.58,2.42-3.49V14.66c0-0.67-0.45-1.42-1.36-2.25v-0.83l0.53,0.53
		h0.36l0.06,0.06h0.12c1.77,0,4.28-1.28,7.51-3.84l0.3,0.3c-0.2,0.32-0.3,0.57-0.3,0.77c-0.16,0.16-0.24,0.38-0.24,0.65
		c-0.35,0.43-0.53,1.24-0.53,2.42v11.76l7.09-5.2c0.99,2.56,2.6,5.3,4.85,8.22l-5.67,3.67c0.39,0.67,0.77,1.38,1.12,2.13
		c0.35,0.75,0.69,1.48,1,2.19c0.2,0.51,0.37,0.99,0.53,1.42c0.16,0.43,0.33,0.89,0.53,1.36c0.55,1.3,1.03,2.19,1.45,2.66
		c0.41,0.47,0.94,0.71,1.57,0.71c0.63,0,1.06-0.06,1.3-0.18l0.18-0.18l0.29,0.41L236.13,46.7z M232.26,27.46
		c-0.41-0.65-0.94-1.53-1.57-2.63l-3.13,2.13v5.62l5.62-3.72C232.98,28.57,232.67,28.11,232.26,27.46z"/>
</g>
<g>
	<path class="st0" d="M165.94,90.28c-1.01-0.37-2.01-0.75-2.67-0.99c0.03-2.09,0.12-3.88,0.06-5.67c-0.14-4.4,0.7-8.56,2.52-12.6
		c1.67-3.71,2.95-7.59,4.44-11.38c0.53-1.35,1.14-2.68,1.76-4c0.58-1.23,0.89-2.33-0.99-2.67c0.25-0.88,0.61-1.67,0.68-2.48
		c0.11-1.3,0.61-1.84,1.84-1.32c1.99-2.22,0.63-4.55-1.79-6.28c-4.42-3.15-7.76-7.32-8.5-12.69c-1.3-9.37,2.36-15.85,10.97-20.28
		c6.79-3.5,13.8-2.75,19.91,1.5c6.89,4.8,9.57,12.01,7.67,20.13c-1.57,6.72-5.81,11.77-12.86,13.7c-1.96,0.54-4,0.79-6.02,1.05
		c-2.08,0.27-4.12,2.02-4.62,4.22c0.5,0.2,1.02,0.4,1.61,0.64c-0.31,0.75-0.63,1.44-0.89,2.15c-0.25,0.68-0.45,1.38-0.72,2.2
		c-1.17-0.43-1.82-0.28-2.04,1.15c-0.88,5.61-1.78,11.22-2.91,16.79c-0.98,4.84-2.4,9.54-5.65,13.5c-0.64,0.78-0.58,2.12-0.85,3.2
		C166.57,90.18,166.26,90.23,165.94,90.28z M165.05,30.27c0.52,1.11,1.41,3.39,2.59,5.51c3.88,6.95,12.04,9.77,19.32,7.81
		c2.91-0.78,5.82-1.58,8.07-4.09c2.1-2.35,3.87-4.71,4.63-7.79c0.74-3,1.02-6.11,0.07-8.98c-1.61-4.86-4.7-8.61-9.6-10.75
		c-6.82-2.98-13.2-2.7-19.1,2.07C166.28,17.88,164.13,22.86,165.05,30.27z"/>
</g>
<g>
	<path class="st0" d="M142.79,58.5v0.25l-0.05,0.1c0,0.2-0.07,0.4-0.2,0.62c-0.13,0.21-0.29,0.48-0.49,0.81
		c-0.23,0.26-0.44,0.49-0.62,0.69c-0.18,0.2-0.35,0.33-0.52,0.39v11.32c0,1.12,0.44,2.08,1.33,2.9c-1.25-0.26-2.25-0.39-3-0.39
		c-3.77,0-6.84,1.13-9.2,3.4c-1.77-1.84-3.36-2.76-4.77-2.76c-0.26,0-0.59,0.05-0.98,0.15l-0.98,0.15c0.13-1.41,0.92-2.46,2.36-3.15
		l-0.05-12.84v0.05l-0.15-0.44c-0.03,0-0.05-0.03-0.05-0.1l-0.1-0.1v-0.1l-0.05-0.05l-0.1-0.2c-0.07-0.07-0.1-0.15-0.1-0.25
		c0-0.03-0.02-0.05-0.05-0.05v-0.1v0.15l-0.05-0.1V58.3c0.39,0.13,0.82,0.23,1.28,0.3c0.46,0.07,0.97,0.1,1.53,0.1
		c3.48,0,6.61-1.15,9.4-3.45c1.08,1.61,2.07,2.58,2.95,2.9c0.49,0.17,0.87,0.25,1.13,0.25c0.16,0,0.36-0.04,0.59-0.12
		c0.23-0.08,0.56-0.25,0.98-0.52v0.64L142.79,58.5z M135.6,73.61h0.05V61.7c-1.12-0.03-2.07-0.66-2.86-1.87
		c-0.56,0.33-1.18,0.49-1.87,0.49v11.86c0.26,0.16,0.57,0.25,0.93,0.25l0.2,0.1h-0.05c0.1,0.03,0.26,0.08,0.49,0.15
		c0.33,0.13,0.92,0.59,1.77,1.38l0.59-0.3C135.06,73.76,135.31,73.71,135.6,73.61z"/>
</g>
<g>
	<path class="st0" d="M160.83,74.04c-0.93,1.02-2.13,1.52-3.59,1.52c-1.18,0-2.31-0.53-3.41-1.58l-1.64,1.71v10.96
		c0.08,0.04,0.2,0.08,0.37,0.12c0.16,0.04,0.34,0.08,0.55,0.12h-0.06c0.81,0.08,1.64,0.55,2.5,1.4l1.1-1.1l1.34,1.46l-6.27,6.09
		c-2.27-2.15-4.41-3.23-6.39-3.23c-0.41,0-0.76,0.05-1.07,0.15c-0.3,0.1-0.62,0.19-0.94,0.27l-0.79,0.3c0-1.26,0.63-2.52,1.89-3.78
		c0.24-0.24,0.46-0.43,0.64-0.55c0.18-0.12,0.33-0.22,0.46-0.3l-0.12,0.06l0.18-0.18h0.18l0.06-0.06v-12.6
		c-0.29-0.41-0.6-0.74-0.94-1c-0.34-0.26-0.74-0.5-1.19-0.7c-0.12-0.04-0.3-0.1-0.55-0.18c-0.08-0.04-0.25-0.09-0.52-0.15
		c-0.26-0.06-0.46-0.11-0.58-0.15c2.52-1.46,4.48-3.57,5.91-6.33c2.15,1.1,3.57,3.04,4.26,5.85l0.55-0.73
		c0.2-0.2,0.41-0.42,0.61-0.64c0.2-0.22,0.43-0.48,0.67-0.76c0.77-0.77,1.62-1.89,2.56-3.35v-0.18l0.49-0.06
		c0.73,2.31,1.81,3.47,3.23,3.47c0.49,0,1.14-0.37,1.95-1.1v1.4C162.23,71.74,161.76,73.02,160.83,74.04z"/>
</g>
<g>
	<path class="st0" d="M201.55,70.7l-0.12,0.12l-0.06,0.12c-0.08,0.08-0.15,0.16-0.21,0.24c-0.06,0.08-0.13,0.16-0.21,0.24v0.12
		c-0.24,0.32-0.38,0.6-0.42,0.85v17.28c0,0.08,0.02,0.14,0.06,0.18v0.12l0.06,0.18V90.1c0.04,0.04,0.06,0.08,0.06,0.12l0.06,0.3
		l0.06,0.06c0,0.16,0.02,0.26,0.06,0.3l0.06,0.12v0.06l0.06,0.06c0,0.08,0.02,0.16,0.06,0.24l0.42,0.85
		c-1.29-0.76-2.76-1.15-4.41-1.15c-3.42,0-6.2,1.31-8.34,3.93l-0.54-0.48c-0.08-0.08-0.15-0.16-0.21-0.24
		c-0.06-0.08-0.13-0.16-0.21-0.24c-1.65-1.93-3.61-2.9-5.86-2.9c-1.33,0-2.52,0.38-3.57,1.15c0.36-2.17,1.45-3.73,3.26-4.65V73.18
		c0-0.64-0.4-1.53-1.21-2.66h0.73l0.12,0.06h0.72l0.12,0.06h0.18c2.98,0,5.48-0.7,7.49-2.12l-2.54-2.78
		c-0.69-0.72-1.39-1.43-2.11-2.12c-0.73-0.68-1.45-1.31-2.18-1.87c-0.16-0.12-0.39-0.29-0.7-0.51c-0.3-0.22-0.63-0.49-1-0.82
		c-0.52-0.44-1.43-1.41-2.72-2.9v-0.85c0.36,0.36,0.73,0.54,1.09,0.54c0.04,0.04,0.26,0.06,0.66,0.06c1.05,0,2.09-0.14,3.14-0.42
		c1.05-0.28,2.07-0.68,3.08-1.21c0.28,0.85,0.81,1.79,1.57,2.84v-0.06l1.51,1.51l6.28,6.22c0.08,0.16,0.12,0.22,0.12,0.18l1.39,1.45
		c0.16,0.16,0.34,0.34,0.54,0.54c0.2,0.2,0.44,0.42,0.72,0.66c0.08,0.08,0.17,0.16,0.27,0.24c0.1,0.08,0.19,0.16,0.27,0.24h-0.06
		c0.64,0.6,1.29,0.91,1.93,0.91l0.48-0.6V70.7z M193.87,89.13V72.57l-2.42-2.48c-1.09,1.05-2.3,1.71-3.63,1.99v14.74l0.42,0.12
		c0.12,0.04,0.32,0.09,0.6,0.15c0.28,0.06,0.68,0.17,1.21,0.33c1.13,0.56,2.09,1.25,2.9,2.05l0.12-0.12h0.06l0.12-0.12h0.18
		l0.06-0.06h0.3L193.87,89.13z M200.88,71.55v-0.12v0.06C200.84,71.53,200.84,71.55,200.88,71.55z M200.94,71.55
		c0-0.04,0.04-0.1,0.12-0.18l-0.12,0.24V71.55z"/>
</g>
<g>
	<path class="st0" d="M124.41,62.06c-0.21,2.36-1.34,4.15-3.39,5.36v19.14c0,0.79,0.26,1.55,0.79,2.28c0,0.05,0.29,0.5,0.87,1.34
		c-0.95,0-1.5-0.03-1.65-0.08h-0.16c-3.78,0-7.56,0.87-11.34,2.6c-0.31,0.1-0.7,0.28-1.14,0.51c-0.45,0.24-1.01,0.51-1.69,0.83
		c-1.58-0.11-3.11-0.67-4.61-1.69c-1.5-1.02-2.69-2.25-3.58-3.66c-1.31,0.84-2.44,1.52-3.39,2.05c-0.42,0.16-0.66,0.26-0.71,0.31
		l-0.16,0.16l-0.16,0.08c-0.11,0.05-0.31,0.18-0.63,0.39v-0.08c-0.21,0.16-0.6,0.45-1.18,0.87c-0.58,0.42-1.26,0.92-2.05,1.5
		c-1.52-1.37-3.02-2.42-4.49-3.15c-1.47-0.73-3.02-1.1-4.65-1.1h-0.16l-0.16,0.08c-0.21,0-0.46,0.03-0.75,0.08
		c-0.29,0.05-0.56,0.13-0.83,0.24c0.52-1.84,1.6-3.36,3.23-4.57l0.08-0.16h0.08V68.36c-0.79-1.58-1.73-2.36-2.84-2.36h-0.16
		l-0.24-0.08h-0.63l-0.16-0.08h-0.24l-0.63-0.39l7.96-7.96c1.58,0.58,2.89,1.52,3.94,2.83c1.05,1.31,1.58,2.78,1.58,4.41v19.53
		c0.26,0.21,0.68,0.32,1.26,0.32c0.26,0.11,0.42,0.17,0.47,0.2c0.05,0.03,0.21,0.09,0.47,0.2c0.58,0.26,1.1,0.53,1.58,0.79
		c0.47,0.26,0.87,0.53,1.18,0.79l0.31-0.32c0.05-0.05,0.12-0.1,0.2-0.16c0.08-0.05,0.14-0.1,0.2-0.16c0.37-0.1,0.71-0.26,1.02-0.47
		V67.88c0-0.73-0.45-1.4-1.34-2.01c-0.89-0.6-1.81-0.91-2.76-0.91v-0.63l8.03-6.93c2.15,1.1,3.52,2.39,4.1,3.86
		c0.05,0.11,0.09,0.24,0.12,0.39c0.03,0.16,0.09,0.31,0.2,0.47c0.05,0.16,0.13,0.45,0.24,0.87v20.56c0,1.84,0.87,3.18,2.6,4.02
		c0.16,0.11,0.37,0.2,0.63,0.28c0.26,0.08,0.5,0.17,0.71,0.28c0.05,0.05,0.1,0.08,0.16,0.08h0.87c0.95,0,1.42-0.5,1.42-1.5V67.65
		c-0.74-0.21-1.52-0.81-2.36-1.81l-0.95,0.39l-1.18-1.89l8.67-6.38c1.31,2.73,2.81,4.17,4.49,4.33c0.05,0.05,0.32,0.08,0.79,0.08
		c0.1,0,0.21-0.03,0.32-0.08h0.08v-0.08c0.1-0.05,0.21-0.08,0.31-0.08c0.1,0,0.26-0.03,0.47-0.08c0.1-0.1,0.29-0.21,0.55-0.32
		L124.41,62.06z"/>
</g>
<path class="st0" d="M218.64,84.91c-0.34-0.31-0.67-0.62-1.01-0.93c-0.36-0.34-0.73-0.68-1.09-1.02c-0.04-0.04-0.07-0.14-0.06-0.19
	c0.3-0.82,0.58-1.64,1.02-2.4c0.45-0.78,1-1.47,1.78-1.94c0.6-0.36,1.26-0.54,1.97-0.42c0.53,0.09,0.85,0.42,1.01,0.92
	c0.18,0.6,0.14,1.2,0.01,1.81c-0.22,1.02-0.8,1.83-1.57,2.51c-0.64,0.56-1.32,1.08-1.98,1.62C218.7,84.88,218.67,84.89,218.64,84.91
	z"/>
<path class="st0" d="M217.48,86c-0.48,0.59-1.03,1.09-1.73,1.39c-0.15,0.06-0.3,0.12-0.46,0.16c-0.92,0.24-1.67-0.3-1.73-1.26
	c-0.03-0.42,0.11-0.8,0.34-1.15c0.43-0.67,1.07-1.12,1.74-1.52c0.04-0.02,0.14,0.01,0.19,0.05c0.38,0.35,0.76,0.7,1.14,1.05
	c0.26,0.24,0.51,0.49,0.78,0.72c0.08,0.07,0.09,0.13,0.02,0.21C217.66,85.77,217.57,85.89,217.48,86z"/>
<path class="st0" d="M227.44,70.61c-0.45-0.1-0.89-0.2-1.34-0.31c-0.49-0.11-0.97-0.23-1.45-0.35c-0.06-0.01-0.13-0.08-0.14-0.13
	c-0.15-0.86-0.31-1.71-0.3-2.59c0-0.9,0.14-1.77,0.58-2.57c0.34-0.62,0.82-1.09,1.5-1.34c0.51-0.19,0.95-0.06,1.33,0.29
	c0.46,0.43,0.72,0.98,0.9,1.56c0.32,1,0.22,1.99-0.11,2.96c-0.28,0.81-0.6,1.59-0.91,2.39C227.48,70.55,227.46,70.58,227.44,70.61z"
	/>
<path class="st0" d="M226.81,72.15c-0.1,0.65-0.3,1.26-0.7,1.79c-0.08,0.11-0.18,0.22-0.28,0.32c-0.59,0.58-1.38,0.49-1.83-0.2
	c-0.2-0.3-0.26-0.65-0.24-1c0.04-0.69,0.32-1.3,0.65-1.88c0.02-0.03,0.11-0.05,0.16-0.04c0.43,0.09,0.87,0.2,1.3,0.3
	c0.3,0.07,0.59,0.14,0.89,0.21c0.09,0.02,0.13,0.06,0.11,0.15C226.84,71.9,226.83,72.03,226.81,72.15z"/>
<path class="st0" d="M231.27,57.21c-0.43-0.14-0.87-0.29-1.3-0.43c-0.47-0.16-0.95-0.32-1.42-0.48c-0.05-0.02-0.12-0.09-0.13-0.15
	c-0.07-0.87-0.15-1.74-0.06-2.61c0.09-0.89,0.3-1.75,0.82-2.51c0.4-0.58,0.92-1.01,1.61-1.2c0.52-0.14,0.95,0.03,1.3,0.42
	c0.42,0.47,0.62,1.04,0.75,1.64c0.22,1.02,0.03,2-0.39,2.94c-0.35,0.78-0.75,1.53-1.13,2.29C231.31,57.16,231.29,57.18,231.27,57.21
	z"/>
<path class="st0" d="M230.68,58.68c-0.19,0.74-0.48,1.42-1,1.99c-0.11,0.12-0.23,0.23-0.35,0.33c-0.74,0.6-1.64,0.42-2.1-0.43
	c-0.2-0.37-0.23-0.77-0.17-1.18c0.12-0.79,0.51-1.46,0.95-2.11c0.03-0.04,0.13-0.05,0.19-0.03c0.49,0.16,0.98,0.32,1.47,0.48
	c0.34,0.11,0.67,0.23,1.01,0.33c0.11,0.03,0.14,0.08,0.11,0.19C230.74,58.4,230.71,58.54,230.68,58.68z"/>
<path class="st0" d="M210.39,79.23c0.21-0.19,0.42-0.38,0.64-0.55c0.92-0.69,2.01-1,3.29-0.75c0.72,1.39,0.53,2.55-0.11,3.6
	c-0.57,0.92-1.37,1.61-2.24,2.22c-0.3,0.21-0.61,0.4-0.91,0.61c-0.08,0.06-0.14,0.04-0.22-0.01c-0.67-0.45-1.35-0.9-2.02-1.36
	c-0.12-0.08-0.3-0.16-0.33-0.28c-0.03-0.11,0.09-0.26,0.16-0.39c0.4-0.78,0.8-1.57,1.2-2.35c0.07-0.13,0.15-0.25,0.22-0.37
	C210.18,79.48,210.29,79.35,210.39,79.23z"/>
<path class="st0" d="M209.53,87.24c-0.21,0.18-0.4,0.37-0.62,0.52c-0.52,0.35-1.21,0.35-1.71,0.02c-0.36-0.24-0.5-0.59-0.52-1.01
	c-0.04-0.71,0.18-1.35,0.54-1.95c0.22-0.37,0.49-0.7,0.74-1.05c0.05-0.07,0.1-0.09,0.19-0.03c0.77,0.52,1.54,1.03,2.3,1.55
	C210.22,85.98,209.97,86.65,209.53,87.24z"/>
<path class="st0" d="M218.05,67.61c0.17-0.23,0.32-0.47,0.5-0.68c0.74-0.88,1.74-1.43,3.04-1.48c1.01,1.19,1.1,2.36,0.71,3.53
	c-0.34,1.03-0.96,1.88-1.68,2.67c-0.24,0.27-0.5,0.53-0.75,0.8c-0.07,0.07-0.13,0.07-0.21,0.04c-0.76-0.29-1.52-0.57-2.27-0.86
	c-0.14-0.05-0.33-0.09-0.38-0.2c-0.05-0.1,0.03-0.28,0.06-0.42c0.21-0.85,0.42-1.71,0.64-2.56c0.04-0.14,0.09-0.27,0.13-0.41
	C217.91,67.91,217.98,67.76,218.05,67.61z"/>
<path class="st0" d="M219.02,75.62c-0.16,0.22-0.31,0.45-0.49,0.65c-0.43,0.46-1.1,0.61-1.66,0.4c-0.41-0.15-0.62-0.47-0.74-0.86
	c-0.2-0.68-0.13-1.36,0.08-2.02c0.13-0.41,0.32-0.79,0.49-1.19c0.03-0.08,0.08-0.11,0.17-0.08c0.86,0.33,1.73,0.66,2.59,0.99
	C219.41,74.23,219.33,74.94,219.02,75.62z"/>
<path class="st0" d="M222.11,54.5c0.14-0.24,0.27-0.5,0.43-0.73c0.65-0.95,1.59-1.59,2.87-1.78c1.12,1.08,1.33,2.24,1.06,3.44
	c-0.24,1.06-0.77,1.97-1.4,2.83c-0.22,0.29-0.44,0.58-0.66,0.87c-0.06,0.08-0.12,0.09-0.21,0.06c-0.78-0.21-1.57-0.42-2.35-0.63
	c-0.14-0.04-0.33-0.06-0.4-0.16c-0.06-0.09,0-0.28,0.02-0.42c0.12-0.87,0.25-1.74,0.38-2.61c0.02-0.14,0.06-0.28,0.09-0.42
	C222,54.81,222.05,54.65,222.11,54.5z"/>
<path class="st0" d="M223.88,62.37c-0.14,0.23-0.26,0.48-0.42,0.69c-0.38,0.5-1.04,0.72-1.61,0.57c-0.42-0.11-0.67-0.4-0.82-0.78
	c-0.26-0.66-0.27-1.34-0.12-2.02c0.09-0.42,0.24-0.82,0.37-1.23c0.03-0.09,0.07-0.12,0.16-0.09c0.89,0.24,1.79,0.48,2.68,0.73
	C224.13,60.95,224.11,61.67,223.88,62.37z"/>
</svg>
